<svg width="20" height="22" viewBox="0 0 20 22" fill="none" xmlns="http://www.w3.org/2000/svg">
<path d="M16.55 12.4057C15.7731 10.4701 15.3845 8.43016 15.3845 6.28576C15.3845 4.93535 15.0001 3.86328 14.2311 3.06928C13.4616 2.27534 12.4038 1.7964 11.0576 1.63279C11.1216 1.48556 11.1536 1.33416 11.1536 1.17863C11.1536 0.851224 11.0415 0.572715 10.8172 0.343741C10.5929 0.114509 10.3205 0 9.99989 0C9.67953 0 9.40703 0.114509 9.18261 0.343741C8.95822 0.572887 8.84612 0.851224 8.84612 1.17863C8.84612 1.33416 8.87811 1.48543 8.94231 1.63279C7.59615 1.79658 6.53839 2.27529 5.76918 3.06928C5.00001 3.86323 4.61545 4.9353 4.61545 6.28576C4.61545 8.43016 4.22692 10.4701 3.44959 12.4057C2.67229 14.3413 1.52251 15.9681 0 17.2858C0 17.7114 0.152268 18.0797 0.456762 18.3906C0.761214 18.7016 1.12174 18.8573 1.53855 18.8573H6.92317C6.92317 19.7249 7.22354 20.4656 7.82453 21.0793C8.42556 21.693 9.15078 22 10.0001 22C10.8495 22 11.5747 21.693 12.1755 21.0793C12.7763 20.4656 13.0769 19.7249 13.0769 18.8573H18.4615C18.8781 18.8573 19.239 18.7019 19.5432 18.3906C19.8477 18.0797 20 17.7114 20 17.2858C18.4777 15.9681 17.3278 14.3413 16.55 12.4057ZM10.0001 21.0178C9.41515 21.0178 8.91617 20.8072 8.50357 20.3857C8.09097 19.9642 7.8846 19.4545 7.8846 18.857C7.8846 18.726 7.94876 18.6605 8.0769 18.6605C8.20513 18.6605 8.26929 18.726 8.26929 18.857C8.26929 19.3399 8.43949 19.7552 8.78002 20.1032C9.12064 20.4512 9.52722 20.625 10 20.625C10.1283 20.625 10.1926 20.6908 10.1926 20.8215C10.1927 20.9524 10.1283 21.0178 10.0001 21.0178Z" fill="#8D8D8D"/>
<path d="M7 18C7.33333 19 8.4 20.9 10 20.5C11.6 20.1 8.66667 18.6667 7 18Z" fill="#8D8D8D" stroke="#8D8D8D"/>
</svg>
