<svg width="18" height="20" viewBox="0 0 18 20" fill="none" xmlns="http://www.w3.org/2000/svg">
<path d="M9.00006 9.47368C11.6315 9.47368 13.7648 7.35293 13.7648 4.73684C13.7648 2.12076 11.6315 0 9.00006 0C6.36858 0 4.23535 2.12076 4.23535 4.73684C4.23535 7.35293 6.36858 9.47368 9.00006 9.47368Z" fill="#8D8D8D"/>
<path d="M18 20V15.7894C18 15.1579 17.6625 14.5263 17.1 14.1052C15.8625 13.1579 14.2875 12.5263 12.7125 12.1052C11.5875 11.7894 10.35 11.5789 9 11.5789C7.7625 11.5789 6.525 11.7894 5.2875 12.1052C3.7125 12.5263 2.1375 13.2631 0.9 14.1052C0.3375 14.5263 0 15.1579 0 15.7894V20H18Z" fill="#8D8D8D"/>
</svg>
