<svg width="20" height="22" viewBox="0 0 20 22" fill="none" xmlns="http://www.w3.org/2000/svg">
<path d="M9.99988 10.1951C12.7613 10.1951 14.9999 7.91286 14.9999 5.09756C14.9999 2.28225 12.7613 0 9.99988 0C7.23845 0 4.99988 2.28225 4.99988 5.09756C4.99988 7.91286 7.23845 10.1951 9.99988 10.1951Z" fill="#8D8D8D"/>
<path d="M20 22V16.9024C20 16.1378 19.625 15.3732 19 14.8634C17.625 13.7165 15.875 12.9518 14.125 12.4421C12.875 12.0597 11.5 11.8049 10 11.8049C8.625 11.8049 7.25 12.0597 5.875 12.4421C4.125 12.9518 2.375 13.8439 1 14.8634C0.375 15.3732 0 16.1378 0 16.9024V22H20Z" fill="#8D8D8D"/>
</svg>
